<?xml version="1.0" encoding="UTF-8" standalone="no"?>
<svg
   xmlns:dc="http://purl.org/dc/elements/1.1/"
   xmlns:cc="http://creativecommons.org/ns#"
   xmlns:rdf="http://www.w3.org/1999/02/22-rdf-syntax-ns#"
   xmlns:svg="http://www.w3.org/2000/svg"
   xmlns="http://www.w3.org/2000/svg"
   xmlns:sodipodi="http://sodipodi.sourceforge.net/DTD/sodipodi-0.dtd"
   xmlns:inkscape="http://www.inkscape.org/namespaces/inkscape"
   viewBox="0 0 72 32"
   version="1.1"
   id="svg4552"
   sodipodi:docname="electron_appauth_superoffice.svg"
   inkscape:version="0.92.3 (2405546, 2018-03-11)">
  <metadata
     id="metadata4558">
    <rdf:RDF>
      <cc:Work
         rdf:about="">
        <dc:format>image/svg+xml</dc:format>
        <dc:type
           rdf:resource="http://purl.org/dc/dcmitype/StillImage" />
        <dc:title></dc:title>
      </cc:Work>
    </rdf:RDF>
  </metadata>
  <defs
     id="defs4556">
    <clipPath
       clipPathUnits="userSpaceOnUse"
       id="clipPath2226">
      <path
         d="M 0,119 H 132 V 0 H 0 Z"
         id="path2224"
         inkscape:connector-curvature="0" />
    </clipPath>
  </defs>
  <sodipodi:namedview
     pagecolor="#ffffff"
     bordercolor="#666666"
     borderopacity="1"
     objecttolerance="10"
     gridtolerance="10"
     guidetolerance="10"
     inkscape:pageopacity="0"
     inkscape:pageshadow="2"
     inkscape:window-width="1920"
     inkscape:window-height="1017"
     id="namedview4554"
     showgrid="false"
     inkscape:zoom="14.574256"
     inkscape:cx="35.244864"
     inkscape:cy="26.896634"
     inkscape:window-x="-8"
     inkscape:window-y="-8"
     inkscape:window-maximized="1"
     inkscape:current-layer="svg4552" />
  <g
     id="g3763"
     transform="matrix(0.5661301,0,0,0.56326015,0.52354176,7.5869498)"
     style="stroke-width:2.6556499">
    <g
       transform="matrix(0.99999,0,0,1,-0.6,0)"
       id="g4"
       style="fill:none;stroke:#74b1be;stroke-width:7.05247641">
      <path
         id="path6"
         d="m 11.7,7.7 c -3.8,-0.7 -6.9,0 -8,2 -1,1.6 -0.7,3.6 0.6,5.7 m 2,2.8 c 1.6,1.7 3.7,3.3 6.1,4.7 5.8,3.4 11.9,4.2 14.8,2.2 m 2.6,-1 c 0,-0.9 -0.7,-1.6 -1.5,-1.6 -0.9,0 -1.6,0.7 -1.6,1.6 0,0.8 0.7,1.5 1.6,1.5 0.8,0 1.5,-0.7 1.5,-1.5 z"
         class="svg-stroke"
         inkscape:connector-curvature="0"
         style="stroke-width:2.6556499" />
      <path
         id="path8"
         d="m 26.1,17.7 c 2.5,-2.9 3.5,-5.9 2.3,-8 -1,-1.4 -2.8,-2.2 -5.2,-2.2 m -3.5,0.4 c -2.3,0.4 -4.8,1.4 -7.3,2.8 -6,3.4 -9.7,8.4 -9.2,11.9 m 0.5,3 c 0.9,0 1.6,-0.7 1.6,-1.5 0,-0.9 -0.7,-1.6 -1.6,-1.6 -0.9,0 -1.6,0.7 -1.6,1.6 0,0.8 0.7,1.5 1.6,1.5 z"
         class="svg-stroke"
         inkscape:connector-curvature="0"
         style="stroke-width:2.6556499" />
      <path
         id="path10"
         d="m 10.2,25 c 1.3,3.7 3.4,6 5.8,6 1.7,0 3.3,-1.2 4.6,-3.3 m 1.5,-3.4 c 0.6,-2.1 1,-4.7 1,-7.5 C 23.1,10.1 20.7,4.4 17.5,3 M 16,4.3 c 0.9,0 1.6,-0.7 1.6,-1.6 0,-0.9 -0.7,-1.6 -1.6,-1.6 -0.9,0 -1.6,0.7 -1.6,1.6 0,0.9 0.7,1.6 1.6,1.6 z"
         class="svg-stroke"
         inkscape:connector-curvature="0"
         style="stroke-width:2.6556499" />
      <path
         id="path12"
         d="m 16.3,18.2 c -0.8,0.2 -1.5,-0.3 -1.7,-1 -0.2,-0.8 0.3,-1.6 1,-1.7 0.9,-0.2 1.6,0.3 1.8,1 0.2,0.8 -0.3,1.6 -1.1,1.7 z"
         class="svg-fill"
         inkscape:connector-curvature="0"
         style="stroke-width:2.6556499" />
    </g>
  </g>
  <style
     id="style3">.st0{fill:#164a72}.st1{fill:#00aeef}</style>
  <g
     id="g3798"
     transform="matrix(0.04189934,0,0,0.04168694,24.16376,7.0657183)"
     style="stroke-width:2.6556499">
    <path
       class="st0"
       d="M 86.7,331.4 A 187.6,187.6 0 0 1 211.5,68 l -21.8,46 a 151.6,151.6 0 0 0 -81,171.3 z m 283.8,67.5 a 187,187 0 0 1 -229,0 l 39.7,-16.7 c 22,12.6 47.5,19.7 74.8,19.7 27.3,0 52.8,-7.1 74.8,-19.7 z M 300.5,68 a 187.7,187.7 0 0 1 124.8,263.4 l -21.8,-46 A 151.6,151.6 0 0 0 322.5,114 Z"
       id="path7"
       inkscape:connector-curvature="0"
       style="fill:#164a72;stroke-width:7.05247641" />
    <path
       class="st1"
       d="m 256,336.4 89.6,37.8 -22.6,-47.6 -67,-28.3 -67,28.3 -22.5,47.6 M 256,21.3 69.4,415.2 l 48.5,-20.5 22.5,-47.5 71.1,-150 44.5,-93.9 62.5,131.7 53,112.2 22.6,47.5 48.5,20.5 z"
       id="path9"
       inkscape:connector-curvature="0"
       style="fill:#00aeef;stroke-width:7.05247641" />
    <path
       id="polygon11"
       d="M 300.5,277.2 256,183.3 211.5,277.2 256,258.5 Z"
       inkscape:connector-curvature="0"
       style="fill:#00aeef;stroke-width:7.05247641" />
  </g>
  <text
     style="font-weight:700;font-size:23.22478867px;line-height:125%;font-family:Impact;-inkscape-font-specification:'Impact Bold';letter-spacing:0;word-spacing:0;fill:#00aeef;stroke-width:1.54192269"
     x="19.209053"
     y="21.134697"
     id="text3803"
     font-size="40"
     font-weight="700"
     letter-spacing="0"
     word-spacing="0"
     transform="scale(1.0025444,0.99746206)">
    <tspan
       id="tspan3805"
       x="19.209053"
       y="21.134697"
       font-size="18"
       style="font-size:10.45115471px;stroke-width:4.09480667">+</tspan>
  </text>
  <text
     transform="scale(1.0025444,0.99746206)"
     word-spacing="0"
     letter-spacing="0"
     font-weight="700"
     font-size="40"
     id="text4562"
     y="21.134697"
     x="44.81942"
     style="font-weight:700;font-size:23.22478867px;line-height:125%;font-family:Impact;-inkscape-font-specification:'Impact Bold';letter-spacing:0;word-spacing:0;fill:#00aeef;stroke-width:1.54192269">
    <tspan
       style="font-size:10.45115471px;stroke-width:4.09480667"
       font-size="18"
       y="21.134697"
       x="44.81942"
       id="tspan4560">+</tspan>
  </text>
  <g
     id="g8012"
     transform="matrix(0.30668565,0,0,-0.3186749,39.617759,35.643076)"
     inkscape:export-filename="E:\ExpanderWorld\EW2018\TShirtOptions.png"
     inkscape:export-xdpi="96"
     inkscape:export-ydpi="96"
     style="fill:#f93c38;fill-opacity:1;stroke:#f93c38;stroke-width:1.00090933;stroke-miterlimit:4;stroke-dasharray:none;stroke-opacity:1">
    <g
       clip-path="url(#clipPath2226)"
       id="g8010"
       style="fill:#f93c38;fill-opacity:1;stroke:#f93c38;stroke-width:1.00090933;stroke-miterlimit:4;stroke-dasharray:none;stroke-opacity:1">
      <g
         transform="translate(71.1577,58.5145)"
         id="g8000"
         style="fill:#f93c38;fill-opacity:1;stroke:#f93c38;stroke-width:1.00090933;stroke-miterlimit:4;stroke-dasharray:none;stroke-opacity:1">
        <path
           inkscape:connector-curvature="0"
           id="path7998"
           style="fill:#f93c38;fill-opacity:1;fill-rule:nonzero;stroke:#f93c38;stroke-width:1.00090933;stroke-miterlimit:4;stroke-dasharray:none;stroke-opacity:1"
           d="m 0,0 c 0,0 4.042,18.801 -12.957,22.862 -7.728,1.845 -7.08,-1.949 -23.947,3.915 0,0 4.724,-10.469 13.09,-12.314 1.657,-0.365 3.484,-0.411 5.351,-0.412 h 0.023 0.051 c 0.284,0 0.569,0.002 0.855,0.003 0.289,0 0.577,0.002 0.867,0.002 h 0.075 c 0.363,0 0.727,-0.002 1.089,-0.007 0.026,-10e-4 0.051,-10e-4 0.077,-0.002 0.737,-0.012 1.469,-0.04 2.189,-0.1 0.022,-10e-4 0.044,-0.004 0.066,-0.006 0.359,-0.03 0.716,-0.069 1.068,-0.118 0.002,-0.001 0.005,-0.001 0.008,-0.002 v -0.013 c 0.032,10e-4 0.062,-10e-4 0.094,0 1.571,-0.23 3.059,-0.669 4.379,-1.5 2.712,-2.085 4.451,-6.116 4.253,-10.668 -0.161,-3.68 -1.553,-6.909 -3.604,-8.985 0.685,1.302 1.122,2.862 1.196,4.558 0.207,4.728 -2.453,8.685 -5.94,8.837 -0.588,0.026 -1.163,-0.06 -1.712,-0.241 0.237,-1.899 0.484,-3.97 0.472,-4.244 -0.013,-0.298 -1.598,1.239 -2.952,2.608 -1.422,-1.511 -2.382,-3.805 -2.496,-6.409 -0.089,-2.047 0.36,-3.948 1.18,-5.46 -2.329,2.201 -3.778,5.927 -3.596,10.098 0.212,4.856 2.569,8.929 5.753,10.599 -0.507,0.013 -1.018,0.021 -1.535,0.021 -0.307,0 -0.613,-0.002 -0.918,-0.003 -0.307,-0.002 -0.613,-0.002 -0.919,-0.002 -1.042,0 -2.18,0.014 -3.315,0.107 -1.904,-2.643 -3.132,-6.07 -3.305,-9.855 -0.398,-8.712 4.941,-16.01 11.924,-16.302 6.379,-0.267 11.92,5.406 13.134,13.031 z" />
      </g>
      <g
         transform="translate(72.956,60.5019)"
         id="g8004"
         style="fill:#f93c38;fill-opacity:1;stroke:#f93c38;stroke-width:1.00090933;stroke-miterlimit:4;stroke-dasharray:none;stroke-opacity:1">
        <path
           inkscape:connector-curvature="0"
           id="path8002"
           style="fill:#f93c38;fill-opacity:1;fill-rule:nonzero;stroke:#f93c38;stroke-width:1.00090933;stroke-miterlimit:4;stroke-dasharray:none;stroke-opacity:1"
           d="m 0,0 c -0.553,-5.486 -2.93,-10.219 -6.277,-13.172 0.572,-0.937 1.756,-2.853 2.776,-4.359 2.369,-3.504 6.565,-9.072 6.565,-9.072 4.441,5.037 6.708,13.91 5.031,17.707 C 6.814,-5.994 2.567,-1.619 0,0" />
      </g>
      <g
         transform="translate(84.2851,72.4644)"
         id="g8008"
         style="fill:#f93c38;fill-opacity:1;stroke:#f93c38;stroke-width:1.00090933;stroke-miterlimit:4;stroke-dasharray:none;stroke-opacity:1">
        <path
           inkscape:connector-curvature="0"
           id="path8006"
           style="fill:#f93c38;fill-opacity:1;fill-rule:nonzero;stroke:#f93c38;stroke-width:1.00090933;stroke-miterlimit:4;stroke-dasharray:none;stroke-opacity:1"
           d="m 0,0 c 0.369,0.073 0.755,0.126 1.164,0.152 4.556,0.283 5.128,-1.157 10.209,1.584 5.081,2.741 6.853,9.243 6.853,9.243 0,0 -4.622,-2.227 -8.097,-2.693 C 5.48,7.662 1.355,9.114 -4.259,5.286 -10.2,1.238 -9.886,-10.07 -9.822,-11.499 c 1.351,-1.001 2.941,-2.482 4.356,-4.062 0.03,-0.033 0.06,-0.066 0.09,-0.099 0.131,-0.148 0.259,-0.297 0.386,-0.445 0.059,-0.069 0.119,-0.138 0.177,-0.206 0.11,-0.131 0.217,-0.262 0.324,-0.393 0.071,-0.088 0.142,-0.176 0.212,-0.264 0.095,-0.119 0.188,-0.239 0.28,-0.359 0.076,-0.099 0.151,-0.197 0.224,-0.296 0.083,-0.111 0.164,-0.221 0.243,-0.331 0.077,-0.108 0.152,-0.216 0.225,-0.323 0.07,-0.101 0.139,-0.201 0.205,-0.301 0.077,-0.116 0.149,-0.231 0.221,-0.345 0.056,-0.09 0.114,-0.18 0.167,-0.268 0.077,-0.129 0.146,-0.255 0.216,-0.381 0.04,-0.071 0.083,-0.144 0.12,-0.215 0.102,-0.194 0.196,-0.385 0.278,-0.569 0.092,-0.21 0.174,-0.432 0.246,-0.663 0.02,-0.065 0.034,-0.137 0.053,-0.204 0.047,-0.167 0.093,-0.336 0.131,-0.513 0.097,-0.464 0.162,-0.959 0.195,-1.481 0.861,-0.265 1.76,-0.403 2.685,-0.391 5.969,0.076 10.711,6.236 10.593,13.759 -0.056,3.607 -1.222,6.87 -3.075,9.284 -1.083,-0.347 -1.947,-0.448 -2.782,-0.448 -0.492,0 -0.97,0.035 -1.471,0.072 2.315,-1.694 3.874,-5.165 3.818,-9.16 -0.051,-3.695 -1.475,-6.91 -3.557,-8.681 0.723,1.245 1.199,2.769 1.309,4.437 0.296,4.463 -2.133,8.257 -5.424,8.476 -0.898,0.059 -1.766,-0.156 -2.563,-0.587 0.197,-1.545 0.475,-3.798 0.464,-4.046 -0.01,-0.244 -1.46,1.193 -2.503,2.257 -0.882,-1.152 -1.517,-2.653 -1.78,-4.339 -0.142,0.836 -0.22,1.707 -0.208,2.61 C -5.897,-4.978 -3.328,-0.847 0,0" />
      </g>
    </g>
  </g>
</svg>
